<svg width="188" height="180" viewBox="0 0 188 180" fill="none" xmlns="http://www.w3.org/2000/svg">
<g clip-path="url(#clip0_60_46)">
<path d="M92.9979 118.185C93.0923 118.845 92.9979 119.412 92.7147 119.884C92.5259 120.261 92.3371 120.686 92.1483 121.158C91.2043 122.385 90.6379 123.235 90.4491 123.707C89.6939 124.179 89.1275 124.793 88.7499 125.548C88.4667 126.303 87.9947 126.917 87.3339 127.389C86.1067 127.389 85.1627 127.861 84.5019 128.805C84.3131 129.654 83.9826 130.315 83.5106 130.787C83.133 131.259 82.8498 131.826 82.661 132.486C81.6226 133.242 80.3954 133.855 78.9794 134.327C77.6578 134.705 76.6666 135.507 76.0058 136.734C75.2506 136.923 74.5425 137.254 73.8817 137.726C73.2209 138.198 72.3241 138.339 71.1913 138.15C71.0025 138.245 70.7665 138.434 70.4833 138.717C70.2001 139 69.8697 139.189 69.4921 139.283C68.7369 139.378 68.0289 139.094 67.3681 138.434C66.8017 138.434 66.3297 138.528 65.952 138.717C65.5744 138.811 65.0552 138.906 64.3944 139C63.4504 138.717 62.9312 138.717 62.8368 139C62.8368 139.189 62.7424 139.283 62.5536 139.283C62.0816 139.378 61.5624 139.425 60.996 139.425C60.524 139.519 59.9576 139.614 59.2968 139.708C58.5416 139.614 58.0224 139.614 57.7392 139.708C57.5504 139.897 57.22 140.038 56.7479 140.133C55.5207 139.755 54.7183 139.708 54.3407 139.991C54.0575 140.274 53.6799 140.51 53.2079 140.699C52.9247 140.605 52.6415 140.605 52.3583 140.699C52.0751 140.794 51.7919 140.888 51.5087 140.982C51.2255 141.171 50.9423 141.313 50.6591 141.407C50.3759 141.502 50.0455 141.454 49.6679 141.266C48.9127 140.605 48.2047 140.369 47.5438 140.558C46.9774 140.746 46.411 140.746 45.8446 140.558C45.2782 140.652 44.8062 140.794 44.4286 140.982C44.051 141.266 43.579 141.407 43.0126 141.407C41.9742 140.652 41.219 140.322 40.747 140.416C40.3694 140.51 39.9446 140.558 39.4726 140.558C38.5285 139.991 37.8205 139.755 37.3485 139.85C36.9709 139.944 36.5461 140.086 36.0741 140.274C35.7909 140.463 35.4605 140.652 35.0829 140.841C34.7997 141.03 34.4693 141.124 34.0917 141.124C32.8645 140.841 32.0621 140.652 31.6845 140.558C31.4013 140.463 31.1181 140.322 30.8349 140.133C30.3629 140.416 29.7965 140.605 29.1356 140.699C28.5692 140.794 27.9084 140.888 27.1532 140.982C26.7756 141.077 26.4452 141.171 26.162 141.266C25.9732 141.36 25.6428 141.407 25.1708 141.407C24.7932 141.218 24.5572 141.03 24.4628 140.841C24.3684 140.652 24.2268 140.463 24.038 140.274C23.6604 140.463 23.3772 140.699 23.1884 140.982C22.9996 141.266 22.6692 141.407 22.1972 141.407C21.8196 141.407 21.5364 141.266 21.3476 140.982C21.1588 140.699 20.8756 140.463 20.4979 140.274C19.7427 140.086 19.2235 139.944 18.9403 139.85C18.5627 139.944 17.9963 140.038 17.2411 140.133C16.4859 140.322 16.0139 140.18 15.8251 139.708C16.2027 138.67 16.5331 138.056 16.8163 137.867C17.0995 137.584 17.4771 137.348 17.9491 137.159C18.5155 137.065 18.9875 137.159 19.3651 137.442C19.7427 137.631 20.2619 137.678 20.9228 137.584C21.678 137.301 22.2444 136.876 22.622 136.31C22.9996 135.743 23.4244 135.177 23.8964 134.61C25.1236 134.327 25.926 134.044 26.3036 133.761C26.7756 133.383 27.106 132.864 27.2948 132.203C27.7668 131.826 28.1916 131.448 28.5692 131.07C28.9468 130.693 29.466 130.362 30.1269 130.079C30.5045 129.513 30.7877 129.041 30.9765 128.663C31.6373 128.002 32.1093 127.53 32.3925 127.247C32.6757 126.869 33.0061 126.586 33.3837 126.397C33.5725 125.831 33.6197 125.265 33.5253 124.698C33.5253 124.132 33.5725 123.565 33.6669 122.999C33.3837 122.244 33.2421 121.772 33.2421 121.583C33.3365 121.3 33.3837 121.064 33.3837 120.875C33.0061 119.931 32.8645 119.412 32.9589 119.317C33.0533 119.223 33.1005 119.081 33.1005 118.893C33.1005 117.854 33.1949 117.005 33.3837 116.344C33.6669 115.589 33.9501 114.881 34.2333 114.22C34.3277 113.842 34.3277 113.512 34.2333 113.229C34.2333 112.851 34.2333 112.473 34.2333 112.096C34.4221 110.868 34.4221 110.255 34.2333 110.255C34.0445 110.16 33.9029 110.019 33.8085 109.83C33.8085 108.508 33.8085 107.328 33.8085 106.29C33.9029 105.252 34.1389 104.26 34.5165 103.316C34.3277 102.844 34.0917 102.467 33.8085 102.184C33.6197 101.806 33.5725 101.287 33.6669 100.626C34.0445 99.5876 34.1861 98.974 34.0917 98.7852C34.0917 98.5964 34.0445 98.4076 33.9501 98.2188C33.7613 98.0299 33.5725 97.7939 33.3837 97.5107C33.2893 97.2275 33.1477 96.8971 32.9589 96.5195C32.6757 95.7643 32.7701 95.1507 33.2421 94.6787C33.3365 93.6403 33.2893 92.6963 33.1005 91.8467C32.9117 90.9027 32.9117 90.0059 33.1005 89.1562C33.0061 88.3066 33.0061 87.7874 33.1005 87.5986C33.1949 87.4098 33.2893 87.221 33.3837 87.0322C33.2893 85.805 33.3365 84.9082 33.5253 84.3418C33.8085 83.7754 33.8557 83.0674 33.6669 82.2178C33.4781 81.7458 33.2893 81.4154 33.1005 81.2266C32.9117 81.0378 32.7701 80.7546 32.6757 80.377C32.5813 79.7161 32.6757 79.2441 32.9589 78.9609C33.2421 78.6777 33.4309 78.3001 33.5253 77.8281C33.5253 77.5449 33.4781 77.3089 33.3837 77.1201C33.2893 76.8369 33.2421 76.5537 33.2421 76.2705C33.1477 75.5153 33.1005 74.8545 33.1005 74.2881C33.1949 73.6273 33.2421 72.9665 33.2421 72.3057C33.0533 71.4561 33.0061 70.984 33.1005 70.8896C33.2893 70.7008 33.4309 70.512 33.5253 70.3232C33.6197 69.4736 33.6669 68.7656 33.6669 68.1992C33.6669 67.5384 33.5253 66.8304 33.2421 66.0752C33.4309 65.2256 33.4309 64.7064 33.2421 64.5176C33.0533 64.3288 32.9117 64.14 32.8173 63.9512C32.7229 63.4792 32.6757 63.1016 32.6757 62.8184C32.7701 62.4408 32.8645 62.1104 32.9589 61.8271C32.9589 60.5999 32.8645 59.7503 32.6757 59.2783C32.5813 58.8063 32.5341 58.2871 32.5341 57.7207C32.6285 57.2487 32.7229 56.9183 32.8173 56.7295C33.0061 56.4463 33.1949 56.1631 33.3837 55.8799C33.1005 55.4079 32.7701 54.8887 32.3925 54.3223C32.0149 53.7559 32.0149 53.1423 32.3925 52.4814C32.2981 52.1038 32.1565 51.8206 31.9677 51.6318C31.7789 51.443 31.5901 51.1126 31.4013 50.6406C31.4013 50.1686 31.4485 49.8382 31.5429 49.6494C31.6373 49.4606 31.6373 49.1302 31.5429 48.6582C30.6933 47.2422 30.0797 46.3454 29.702 45.9678C29.3244 45.5902 29.0884 44.9766 28.994 44.127C28.7108 43.7493 28.3332 43.5133 27.8612 43.4189C27.3892 43.2301 26.9644 42.9469 26.5868 42.5693C25.7372 41.9085 25.1236 41.6253 24.746 41.7197C23.9908 40.9645 22.9996 40.7285 21.7724 41.0117C21.206 40.8229 20.734 40.5397 20.3563 40.1621C19.9787 39.6901 19.7899 39.0293 19.7899 38.1797C19.3179 37.8965 18.7043 37.7549 17.9491 37.7549C17.0995 37.7549 16.3915 37.6605 15.8251 37.4717C16.0139 36.7165 16.2499 36.3861 16.5331 36.4805C16.8163 36.5749 17.1939 36.5749 17.6659 36.4805C18.2323 36.2917 18.8931 36.1501 19.6483 36.0557C20.3091 35.9613 21.0172 35.8669 21.7724 35.7725C22.0556 35.8669 22.2916 36.0085 22.4804 36.1973C22.6692 36.3861 22.858 36.5749 23.0468 36.7637C23.6132 36.4805 24.2268 36.1501 24.8876 35.7725C25.6428 35.3949 26.398 35.4421 27.1532 35.9141C27.342 36.1029 27.4836 36.3389 27.578 36.6221C27.7668 36.8109 28.0028 36.9997 28.286 37.1885C28.6636 36.9997 29.0412 36.8109 29.4188 36.6221C29.8909 36.3389 30.4101 36.2445 30.9765 36.3389C31.9205 36.1501 32.4397 36.1029 32.5341 36.1973C32.6285 36.2917 32.7701 36.3389 32.9589 36.3389C33.3365 36.2445 33.7141 36.0085 34.0917 35.6309C34.5637 35.2533 35.0357 34.9229 35.5077 34.6396C36.0741 34.3564 36.5933 34.2148 37.0653 34.2148C37.5373 34.1204 37.9621 34.3092 38.3397 34.7812C38.5285 35.8197 38.8117 36.3861 39.1894 36.4805C39.6614 36.5749 40.0862 36.7637 40.4638 37.0469C41.1246 36.8581 41.8326 36.6693 42.5878 36.4805C43.4374 36.1973 44.1454 36.2917 44.7118 36.7637C45.1838 36.5749 45.703 36.3389 46.2694 36.0557C46.8358 35.7725 47.4494 35.8197 48.1103 36.1973C48.4879 36.1029 48.8183 36.0085 49.1015 35.9141C49.3847 35.8197 49.7623 35.7725 50.2343 35.7725C50.9895 35.3949 51.6031 35.1589 52.0751 35.0645C52.6415 35.1589 53.0663 35.3005 53.3495 35.4893C53.7271 35.5837 54.1991 35.6309 54.7655 35.6309C54.9543 35.8197 55.1431 36.0085 55.3319 36.1973C55.6151 36.2917 55.8511 36.4333 56.0399 36.6221C56.5119 36.6221 56.9367 36.5749 57.3144 36.4805C57.692 36.3861 58.1168 36.2917 58.5888 36.1973C58.9664 36.0085 59.3912 35.9613 59.8632 36.0557C60.3352 36.0557 60.8072 36.0085 61.2792 35.9141C61.8456 35.8197 62.412 35.7253 62.9784 35.6309C63.5448 35.5365 64.064 35.6781 64.536 36.0557C65.48 36.3389 65.952 36.6693 65.952 37.0469C65.952 37.3301 65.9992 37.5661 66.0937 37.7549C66.7545 37.6605 67.3209 37.6605 67.7929 37.7549C68.3593 37.7549 69.0201 37.7077 69.7753 37.6133C70.2473 37.7077 70.6721 37.8493 71.0497 38.0381C71.5217 38.1325 72.0881 38.2269 72.7489 38.3213C73.4097 38.6989 73.8345 38.8405 74.0233 38.7461C74.2121 38.5573 74.4953 38.5101 74.8729 38.6045C75.5338 39.3597 75.9586 39.7845 76.1474 39.8789C76.3362 39.8789 76.525 39.9261 76.7138 40.0205C76.9026 40.3981 77.0914 40.7757 77.2802 41.1533C77.469 41.4365 77.7994 41.6725 78.2714 41.8613C78.7434 41.7669 79.1682 41.6725 79.5458 41.5781C79.9234 41.4837 80.2066 41.5781 80.3954 41.8613C81.9058 42.8997 83.133 43.9382 84.077 44.9766C84.1715 45.4486 84.2659 45.8262 84.3603 46.1094C84.4547 46.3926 84.5963 46.723 84.7851 47.1006C85.3515 47.1006 85.7763 47.2422 86.0595 47.5254C86.4371 47.7142 86.7675 47.9502 87.0507 48.2334C87.3339 48.5166 87.6171 48.7998 87.9003 49.083C88.1835 49.3662 88.5611 49.555 89.0331 49.6494C89.2219 49.9326 89.2219 50.3574 89.0331 50.9238C88.9387 51.3958 88.9387 51.7734 89.0331 52.0566C89.1275 52.3398 89.3163 52.4814 89.5995 52.4814C89.9771 52.4814 90.2603 52.5758 90.4491 52.7646C90.7323 52.9535 91.0155 53.1895 91.2987 53.4727C91.5819 53.6615 91.8651 53.8503 92.1483 54.0391C92.1483 54.6999 92.2899 55.2191 92.5731 55.5967C92.9507 55.8799 93.1867 56.3519 93.2812 57.0127C93.8476 57.3903 94.2724 57.8151 94.5556 58.2871C94.9332 58.7591 95.358 59.1839 95.83 59.5615C96.3964 60.2223 96.6796 60.6471 96.6796 60.8359C96.6796 60.9303 96.774 61.0247 96.9628 61.1191C97.4348 62.6296 97.718 63.9984 97.8124 65.2256C97.9068 66.3584 98.19 67.3496 98.662 68.1992C98.9452 69.0488 99.1812 69.568 99.37 69.7568C99.6532 69.8512 99.8892 69.9928 100.078 70.1816C100.172 70.6536 100.172 71.0312 100.078 71.3145C99.9836 71.5977 99.842 71.9281 99.6532 72.3057C99.842 73.4385 100.031 74.2881 100.22 74.8545C100.408 75.4209 100.597 76.0817 100.786 76.8369C100.408 79.2913 100.267 81.321 100.361 82.9258C100.456 84.5306 100.786 85.9938 101.352 87.3154C101.352 88.3538 101.211 89.2035 100.928 89.8643C100.739 90.5251 100.55 91.2331 100.361 91.9883C100.833 92.9323 100.786 93.7347 100.22 94.3955C99.7476 94.9619 99.4172 95.5755 99.2284 96.2363C99.606 97.8411 99.7004 98.974 99.5116 99.6348C99.3228 100.201 99.134 100.768 98.9452 101.334C99.0396 101.806 98.9924 102.278 98.8036 102.75C98.7092 103.222 98.5676 103.694 98.3788 104.166C98.19 104.638 98.0484 105.11 97.954 105.582C97.8596 106.054 97.718 106.479 97.5292 106.856C97.3404 107.989 97.1988 108.792 97.1044 109.264C97.01 109.641 96.9628 110.16 96.9628 110.821C96.5852 111.293 96.302 111.86 96.1132 112.521C96.0188 113.181 95.9716 113.842 95.9716 114.503C94.7444 115.258 93.7532 116.485 92.9979 118.185ZM81.953 78.9609C82.0474 78.6777 82.0474 78.3945 81.953 78.1113C81.953 77.8281 82.0474 77.5921 82.2362 77.4033C82.0474 77.0257 81.8586 76.7425 81.6698 76.5537C81.481 76.2705 81.2922 75.8929 81.1034 75.4209C81.3866 74.2881 81.481 73.5801 81.3866 73.2969C81.3866 73.0137 81.3394 72.7777 81.245 72.5889C80.9618 72.2113 80.6314 71.9281 80.2538 71.7393C79.8762 71.4561 79.593 71.0785 79.4042 70.6064C79.2154 70.1344 79.1682 69.804 79.2626 69.6152C79.357 69.332 79.357 69.0488 79.2626 68.7656C78.3186 67.444 77.705 66.1224 77.4218 64.8008C76.9498 64.612 76.4778 64.4232 76.0058 64.2344C75.5338 64.0456 75.2034 63.7152 75.0145 63.2432C74.8257 62.8656 74.7785 62.5824 74.8729 62.3936C74.9673 62.2048 74.9673 61.8743 74.8729 61.4023C74.6841 61.0247 74.4481 60.7415 74.1649 60.5527C73.8817 60.2695 73.7401 59.8447 73.7401 59.2783C72.7017 58.7119 71.8993 58.0039 71.3329 57.1543C70.2945 56.5879 69.7281 56.2103 69.6337 56.0215C69.5393 55.8327 69.3977 55.6911 69.2089 55.5967C68.2649 55.2191 67.7929 54.8887 67.7929 54.6055C66.8489 54.4167 66.2353 54.1807 65.952 53.8975C65.6688 53.5199 65.2912 53.2367 64.8192 53.0479C64.3472 52.859 63.828 52.7646 63.2616 52.7646C62.7896 52.6702 62.4592 52.387 62.2704 51.915C61.9872 51.443 61.6568 51.3014 61.2792 51.4902C60.996 51.5846 60.6184 51.6318 60.1464 51.6318C59.9576 51.5374 59.7688 51.3958 59.58 51.207C59.4856 50.9238 59.2968 50.6878 59.0136 50.499C58.5416 50.3102 58.0696 50.3102 57.5976 50.499C57.22 50.5934 56.7479 50.6878 56.1815 50.7822C55.8983 50.6878 55.6623 50.5934 55.4735 50.499C55.2847 50.3102 54.9543 50.3102 54.4823 50.499C54.1047 50.3102 53.6799 49.8382 53.2079 49.083C51.8863 49.7438 50.8479 50.027 50.0927 49.9326C49.4319 49.7438 48.9599 50.0742 48.6767 50.9238C48.9599 51.5846 49.2903 52.1038 49.6679 52.4814C50.0455 52.7646 50.3287 53.1423 50.5175 53.6143C50.8007 54.6527 50.6591 55.4551 50.0927 56.0215C49.6207 56.5879 49.3375 57.3431 49.2431 58.2871C49.7151 59.7031 49.9511 60.7887 49.9511 61.5439C49.9511 62.2992 49.8567 63.0544 49.6679 63.8096C49.8567 64.2816 49.9511 64.9424 49.9511 65.792C49.9511 66.5472 49.8567 67.1608 49.6679 67.6328C50.2343 68.7656 50.5175 70.1816 50.5175 71.8809C50.2343 72.9193 50.0455 74.0049 49.9511 75.1377C49.8567 76.1761 49.8095 77.3089 49.8095 78.5361C50.2815 79.4801 50.5175 80.613 50.5175 81.9346C50.6119 83.2562 50.6591 84.4362 50.6591 85.4746C50.8479 85.6634 50.9423 85.8994 50.9423 86.1826C51.0367 86.4658 51.1311 86.749 51.2255 87.0322C51.1311 88.7314 51.0839 90.1947 51.0839 91.4219C51.1783 92.5547 51.0839 93.6403 50.8007 94.6787C50.8007 95.6227 50.8007 96.1891 50.8007 96.3779C50.8007 96.4723 50.8479 96.6139 50.9423 96.8027C50.7535 98.1243 50.4703 99.2572 50.0927 100.201C49.8095 101.145 49.6679 102.278 49.6679 103.6C50.1399 104.26 50.3759 105.11 50.3759 106.148C50.3759 107.092 50.5175 107.942 50.8007 108.697C50.8951 109.169 50.8951 109.594 50.8007 109.972C50.8007 110.255 50.8479 110.632 50.9423 111.104C50.7535 112.049 50.6591 112.851 50.6591 113.512C51.1311 114.739 51.2255 115.494 50.9423 115.777C50.7535 116.061 50.5175 116.297 50.2343 116.485C49.9511 116.674 49.6207 116.91 49.2431 117.193C48.9599 117.382 48.7711 117.665 48.6767 118.043C49.5263 118.704 49.9983 119.129 50.0927 119.317C50.1871 119.506 50.2343 119.695 50.2343 119.884C50.1399 120.45 49.9039 120.969 49.5263 121.441C49.3375 122.197 49.2903 122.857 49.3847 123.424C49.5735 123.99 49.7623 124.557 49.9511 125.123C50.4231 125.878 50.6119 126.35 50.5175 126.539C50.4231 126.633 50.3759 126.775 50.3759 126.964C51.6975 126.492 52.4055 126.35 52.4999 126.539C52.5943 126.633 52.7359 126.681 52.9247 126.681C53.8687 126.209 54.3879 125.878 54.4823 125.689C54.5767 125.406 54.8127 125.17 55.1903 124.981C55.3791 125.642 55.4735 126.35 55.4735 127.105C55.5679 127.861 55.8983 128.144 56.4647 127.955V126.256C56.8423 125.878 57.1728 125.501 57.456 125.123C57.7392 124.745 58.2584 124.557 59.0136 124.557C59.4856 124.651 59.6744 124.887 59.58 125.265C59.58 125.642 59.6272 125.973 59.7216 126.256C60.9488 126.067 61.6568 125.831 61.8456 125.548C62.1288 125.265 62.5064 125.029 62.9784 124.84C63.828 124.84 64.3 124.793 64.3944 124.698C64.4888 124.604 64.6304 124.509 64.8192 124.415C64.9136 123.754 65.1496 123.282 65.5272 122.999C65.9992 122.621 66.4241 122.244 66.8017 121.866C67.7457 121.489 68.2649 121.347 68.3593 121.441C68.5481 121.441 68.7369 121.441 68.9257 121.441C69.3033 121.158 69.6337 120.828 69.9169 120.45C70.2001 120.073 70.4833 119.648 70.7665 119.176C71.6161 118.137 72.1825 117.288 72.4657 116.627C72.8433 115.966 73.2681 115.305 73.7401 114.645C74.4953 114.739 74.9201 114.55 75.0145 114.078C75.109 113.606 75.1562 113.04 75.1562 112.379C75.5338 111.435 76.2418 110.821 77.2802 110.538C77.5634 109.688 77.705 109.169 77.705 108.98C77.7994 108.508 77.941 108.131 78.1298 107.848C78.413 107.564 78.5546 107.14 78.5546 106.573C79.121 105.818 79.4042 105.063 79.4042 104.308C79.593 103.647 79.593 103.08 79.4042 102.608C79.2154 102.136 79.121 101.57 79.121 100.909C79.4042 100.06 79.829 99.446 80.3954 99.0684C80.9618 98.6908 81.3394 98.1243 81.5282 97.3691C81.245 96.3307 81.1506 95.7643 81.245 95.6699C81.4338 95.4811 81.5754 95.2923 81.6698 95.1035C81.8586 93.9707 81.8586 93.1683 81.6698 92.6963C81.481 92.1299 81.3394 91.6107 81.245 91.1387C81.4338 90.2891 81.5282 89.5339 81.5282 88.873C81.5282 88.1178 81.6226 87.3154 81.8114 86.4658C80.773 85.9938 80.4426 85.333 80.8202 84.4834C81.1978 83.5394 81.481 82.737 81.6698 82.0762C81.5754 81.6986 81.481 81.321 81.3866 80.9434C81.3866 80.4714 81.4338 80.0938 81.5282 79.8105L81.953 78.9609ZM177.812 104.591C177.812 105.063 177.812 105.629 177.812 106.29C177.906 106.856 177.859 107.376 177.67 107.848C177.953 108.792 177.953 109.688 177.67 110.538C177.481 111.293 177.292 112.19 177.104 113.229C177.481 113.889 177.528 114.503 177.245 115.069C176.962 115.636 176.584 116.108 176.112 116.485C176.112 117.052 175.971 117.477 175.688 117.76C175.499 118.043 175.31 118.373 175.121 118.751C175.027 119.978 174.791 120.828 174.413 121.3C174.036 121.677 173.658 122.102 173.28 122.574C173.186 123.329 173.092 124.037 172.997 124.698C172.903 125.359 172.667 125.925 172.289 126.397C172.195 126.869 172.148 127.294 172.148 127.672C172.242 128.049 172.148 128.333 171.864 128.521C171.581 128.616 171.298 128.71 171.015 128.805C170.826 128.805 170.543 128.757 170.165 128.663C169.693 128.852 169.316 129.135 169.032 129.513C168.749 129.796 168.372 130.079 167.9 130.362C167.994 131.401 167.9 131.967 167.616 132.062C167.428 132.156 167.192 132.298 166.908 132.486C166.72 132.864 166.483 133.194 166.2 133.478C165.917 133.761 165.775 134.186 165.775 134.752C165.492 134.941 165.209 135.177 164.926 135.46C164.737 135.743 164.501 135.979 164.218 136.168C163.935 136.923 163.51 137.49 162.943 137.867C161.905 137.867 161.339 137.962 161.244 138.15C161.15 138.245 161.008 138.386 160.819 138.575C160.347 138.764 159.828 138.953 159.262 139.142C158.695 139.33 158.082 139.472 157.421 139.566C156.666 139.566 156.099 139.708 155.722 139.991C155.344 140.369 154.778 140.558 154.023 140.558C153.551 139.991 153.22 139.755 153.031 139.85C152.937 140.038 152.748 140.227 152.465 140.416C151.71 140.416 151.143 140.652 150.766 141.124C150.483 141.596 150.011 141.926 149.35 142.115C148.878 142.115 148.547 141.974 148.358 141.69C148.264 141.502 148.122 141.313 147.934 141.124C146.895 141.69 146.376 142.21 146.376 142.682C146.47 143.154 146.282 143.484 145.81 143.673C145.149 143.578 144.63 143.342 144.252 142.965C143.874 142.682 143.45 142.446 142.978 142.257C142.411 142.351 141.892 142.493 141.42 142.682C141.042 142.965 140.476 143.059 139.721 142.965C138.399 142.493 137.597 142.398 137.314 142.682C137.125 142.965 136.842 143.059 136.464 142.965C135.992 142.965 135.662 142.776 135.473 142.398C135.284 142.115 134.954 141.832 134.482 141.549C133.254 141.643 132.499 141.313 132.216 140.558C131.838 140.558 131.508 140.558 131.225 140.558C131.036 140.652 130.847 140.699 130.658 140.699C129.525 140.227 128.534 139.897 127.685 139.708C126.835 139.614 126.033 139.425 125.277 139.142C124.805 138.67 124.428 138.056 124.145 137.301C123.956 136.546 123.767 135.79 123.578 135.035C123.106 134.186 122.729 133.902 122.445 134.186C122.162 134.374 121.785 134.469 121.313 134.469C120.841 134.374 120.416 133.95 120.038 133.194C119.094 132.345 118.433 131.448 118.056 130.504C117.678 129.56 117.065 128.71 116.215 127.955C115.649 126.822 114.893 125.831 113.949 124.981C113.1 124.037 112.203 123.093 111.259 122.149C110.881 121.394 110.74 120.545 110.834 119.601C110.834 118.562 110.456 117.807 109.701 117.335C109.324 116.769 109.654 116.297 110.692 115.919C111.636 115.447 112.297 114.833 112.675 114.078C113.713 113.417 114.516 113.134 115.082 113.229C115.743 113.323 116.357 113.181 116.923 112.804C117.206 111.765 117.489 111.246 117.773 111.246C118.15 111.152 118.481 110.963 118.764 110.68C119.425 109.452 119.849 108.697 120.038 108.414C120.321 108.036 120.557 107.706 120.746 107.423C121.313 106.668 121.973 106.007 122.729 105.44C123.578 104.402 124.239 103.6 124.711 103.033C125.183 102.467 125.655 101.9 126.127 101.334C126.977 100.768 127.732 100.437 128.393 100.343C128.865 100.815 129.242 101.051 129.525 101.051C129.903 101.051 130.328 101.287 130.8 101.759C130.422 103.269 129.62 104.166 128.393 104.449C128.393 104.827 128.298 105.204 128.109 105.582C128.015 105.96 128.062 106.337 128.251 106.715C128.44 106.998 128.581 107.328 128.676 107.706C128.77 107.989 128.912 108.272 129.101 108.556C129.006 108.839 128.912 109.122 128.817 109.405C128.723 109.688 128.44 109.924 127.968 110.113C128.062 110.585 127.968 110.963 127.685 111.246C127.496 111.529 127.449 111.907 127.543 112.379C127.732 112.851 127.921 113.276 128.109 113.653C128.393 114.031 128.629 114.456 128.817 114.928C129.195 116.249 129.195 117.193 128.817 117.76C128.534 118.232 128.298 118.657 128.109 119.034C128.298 119.412 128.534 119.742 128.817 120.025C129.101 120.214 129.337 120.45 129.525 120.733C129.809 121.111 130.328 121.583 131.083 122.149C132.688 122.055 133.774 122.385 134.34 123.141C134.906 123.896 135.284 124.934 135.473 126.256C135.662 126.35 135.898 126.35 136.181 126.256C136.464 126.067 136.842 125.973 137.314 125.973C138.258 125.878 139.154 125.973 140.004 126.256C141.514 125.973 142.364 125.973 142.553 126.256C142.836 126.445 143.214 126.586 143.686 126.681C144.252 126.492 144.63 126.209 144.818 125.831C145.102 125.453 145.479 125.17 145.951 124.981C146.423 124.981 146.754 125.029 146.942 125.123C147.131 125.217 147.462 125.312 147.934 125.406C148.406 125.501 148.642 125.642 148.642 125.831C148.642 126.02 148.878 126.114 149.35 126.114C149.822 126.02 150.199 125.878 150.483 125.689C150.86 125.501 151.285 125.359 151.757 125.265C152.229 125.076 152.607 124.84 152.89 124.557C153.173 124.273 153.598 124.132 154.164 124.132C154.447 122.905 154.636 122.008 154.731 121.441C154.825 120.875 155.061 120.497 155.439 120.309C156.194 119.553 156.666 118.94 156.855 118.468C157.043 117.901 157.232 117.382 157.421 116.91C158.459 116.061 159.026 115.258 159.12 114.503C159.309 113.653 159.403 112.851 159.403 112.096C159.781 111.152 160.064 110.208 160.253 109.264C160.536 108.32 160.772 107.328 160.961 106.29C160.867 105.346 160.914 104.591 161.103 104.024C160.536 103.458 160.347 102.656 160.536 101.617C159.781 101.051 159.403 100.532 159.403 100.06C159.403 99.5876 159.356 99.21 159.262 98.9268C158.79 98.4548 158.318 97.9827 157.846 97.5107C157.468 97.0387 157.185 96.4723 156.996 95.8115C156.052 95.5283 155.344 94.9619 154.872 94.1123C154.495 94.3955 154.023 94.5371 153.456 94.5371C152.984 94.4427 152.607 94.2067 152.323 93.8291C151.568 93.6403 150.955 93.4515 150.483 93.2627C150.011 92.9795 149.303 92.9323 148.358 93.1211C147.886 92.7435 147.603 92.4131 147.509 92.1299C147.509 91.8467 147.462 91.4691 147.367 90.9971C146.99 90.8083 146.47 90.7611 145.81 90.8555C145.243 90.9499 144.63 90.9027 143.969 90.7139C143.591 90.5251 143.214 90.3835 142.836 90.2891C142.553 90.1003 142.175 90.0059 141.703 90.0059C141.231 89.5339 140.618 89.2507 139.862 89.1562C139.202 88.9674 138.682 88.637 138.305 88.165C137.172 87.3154 136.228 86.7962 135.473 86.6074C134.718 86.4186 133.962 86.2298 133.207 86.041C132.641 85.6634 132.169 85.3802 131.791 85.1914C130.564 85.569 129.809 85.7106 129.525 85.6162C129.337 85.5218 129.053 85.4274 128.676 85.333C128.393 85.1442 128.157 85.0026 127.968 84.9082C127.779 84.7194 127.543 84.5778 127.26 84.4834C126.788 83.8226 126.174 83.2562 125.419 82.7842C124.758 82.2178 124.192 81.557 123.72 80.8018C123.437 80.613 123.153 80.4242 122.87 80.2354C122.681 79.9521 122.493 79.7161 122.304 79.5273C121.265 79.2441 120.369 78.8665 119.613 78.3945C119.33 76.9785 119.094 75.9401 118.905 75.2793C118.717 74.6185 118.669 73.8633 118.764 73.0137C118.481 72.7305 118.15 72.4945 117.773 72.3057C117.395 72.1169 117.112 71.7865 116.923 71.3145C117.017 70.4648 116.829 69.8512 116.357 69.4736C115.979 69.0016 115.696 68.4824 115.507 67.916C115.696 67.6328 115.837 67.3496 115.932 67.0664C116.026 66.6888 116.121 66.3584 116.215 66.0752C115.932 65.32 115.743 64.5176 115.649 63.668C115.554 62.8184 115.649 61.9215 115.932 60.9775C115.932 60.0335 115.932 59.4671 115.932 59.2783C115.932 59.0895 116.026 58.9007 116.215 58.7119C116.215 58.3343 116.168 58.0039 116.073 57.7207C116.073 57.3431 116.073 57.0127 116.073 56.7295C116.073 56.2575 116.121 55.7855 116.215 55.3135C116.309 54.8415 116.451 54.3695 116.64 53.8975C117.584 52.7646 118.15 51.7734 118.339 50.9238C118.622 50.0742 119.047 49.4134 119.613 48.9414C120.085 47.7142 120.652 46.6758 121.313 45.8262C122.068 44.8822 122.823 43.9854 123.578 43.1357C124.428 42.7581 124.947 42.3333 125.136 41.8613C125.419 41.3893 125.844 41.0589 126.41 40.8701C127.449 40.7757 128.015 40.5397 128.109 40.1621C128.298 39.6901 128.629 39.3125 129.101 39.0293C129.856 39.2181 130.47 39.1709 130.942 38.8877C131.414 38.6045 132.027 38.4157 132.782 38.3213C133.726 37.7549 134.576 37.0469 135.331 36.1973C135.803 36.1973 136.181 36.2917 136.464 36.4805C136.842 36.5749 137.172 36.6693 137.455 36.7637C138.21 36.1973 138.635 35.9141 138.73 35.9141C138.918 35.8197 139.06 35.7253 139.154 35.6309C139.815 35.1589 140.382 34.8757 140.854 34.7812C141.42 34.6868 141.845 34.6396 142.128 34.6396C142.978 34.734 143.497 34.6868 143.686 34.498C143.874 34.3092 144.158 34.2148 144.535 34.2148C144.913 34.3092 145.149 34.4036 145.243 34.498C145.432 34.498 145.762 34.4036 146.234 34.2148C147.273 34.4036 148.028 34.5924 148.5 34.7812C148.972 34.8757 149.539 34.8757 150.199 34.7812C150.483 35.0645 150.907 35.3949 151.474 35.7725C151.851 35.5837 152.182 35.3949 152.465 35.2061C152.843 34.9229 153.22 34.6396 153.598 34.3564C153.975 34.1676 154.353 33.9316 154.731 33.6484C155.108 33.3652 155.533 33.4596 156.005 33.9316C156.194 34.3092 156.194 34.6868 156.005 35.0645C155.816 35.3477 155.769 35.7253 155.863 36.1973C156.619 36.7637 157.279 37.1885 157.846 37.4717C158.412 37.6605 158.931 37.9909 159.403 38.4629C160.253 38.8405 160.725 39.1709 160.819 39.4541C161.008 39.7373 161.197 39.9733 161.386 40.1621C161.858 40.0677 162.235 39.9733 162.519 39.8789C162.896 39.7845 163.321 39.6901 163.793 39.5957C164.926 39.6901 165.398 40.4925 165.209 42.0029C165.681 42.2861 166.106 42.5693 166.483 42.8525C166.861 43.0413 167.239 43.3245 167.616 43.7021C169.316 43.891 170.401 44.4102 170.873 45.2598C170.684 46.2038 170.59 46.723 170.59 46.8174C171.628 47.195 172.242 47.4782 172.431 47.667C172.62 47.7614 172.808 47.903 172.997 48.0918C172.997 48.7526 172.903 49.1774 172.714 49.3662C172.62 49.4606 172.525 49.6494 172.431 49.9326L173.847 51.0654C174.319 51.3486 174.602 51.6318 174.696 51.915C174.885 52.1038 175.168 52.1982 175.546 52.1982C176.018 53.0479 176.207 53.5671 176.112 53.7559C176.112 53.8503 176.207 53.9919 176.396 54.1807C174.98 54.8415 173.8 55.6911 172.856 56.7295C172.384 57.3903 172.1 57.8623 172.006 58.1455C172.006 58.3343 171.912 58.5231 171.723 58.7119C171.251 59.2783 171.015 59.6559 171.015 59.8447C171.015 60.0335 171.062 60.2223 171.156 60.4111C170.873 60.8831 170.59 61.2607 170.307 61.5439C170.024 61.8271 169.788 62.1576 169.599 62.5352C169.41 63.2904 169.174 63.8568 168.891 64.2344C168.419 64.4232 167.994 64.6592 167.616 64.9424C167.239 65.2256 166.814 65.4144 166.342 65.5088C166.342 65.9808 166.342 66.4056 166.342 66.7832C166.436 67.0664 166.342 67.444 166.059 67.916C165.303 68.388 164.737 69.1904 164.359 70.3232C163.51 70.8896 163.038 71.3145 162.943 71.5977C162.943 71.8809 162.849 72.2113 162.66 72.5889C161.716 73.2497 161.008 73.5801 160.536 73.5801C160.064 73.4857 159.687 73.2497 159.403 72.8721C159.403 71.8337 159.403 71.0785 159.403 70.6064C160.064 69.8512 160.489 69.1904 160.678 68.624C160.3 67.8688 160.253 67.2552 160.536 66.7832C160.536 65.9336 160.631 65.5088 160.819 65.5088C161.008 65.4144 161.103 65.32 161.103 65.2256C160.631 64.1872 160.347 63.6208 160.253 63.5264C160.159 63.432 160.017 63.3376 159.828 63.2432C159.545 62.488 159.309 62.0632 159.12 61.9688C159.026 61.8743 158.979 61.6855 158.979 61.4023C158.79 60.4583 158.601 59.8919 158.412 59.7031C158.318 59.4199 158.271 59.1367 158.271 58.8535C158.459 58.0983 158.554 57.6263 158.554 57.4375C158.554 57.1543 158.459 56.9183 158.271 56.7295C157.987 56.5407 157.704 56.4935 157.421 56.5879C157.232 56.6823 156.996 56.6351 156.713 56.4463C156.335 56.0687 156.147 55.7383 156.147 55.4551C156.241 55.1719 156.194 54.8887 156.005 54.6055C156.477 54.1335 156.713 53.6615 156.713 53.1895C156.335 53.0007 156.005 52.9535 155.722 53.0479C155.533 53.0479 155.344 52.9535 155.155 52.7646C154.306 51.8206 153.834 51.1126 153.739 50.6406C153.456 50.6406 153.22 50.735 153.031 50.9238C152.843 51.0182 152.559 51.0182 152.182 50.9238C151.238 50.263 150.577 49.9798 150.199 50.0742C149.916 50.0742 149.539 50.0742 149.067 50.0742C147.839 49.791 146.895 49.5078 146.234 49.2246C145.574 48.9414 145.29 48.375 145.385 47.5254C145.196 47.6198 145.007 47.8558 144.818 48.2334C144.63 48.5166 144.441 48.7526 144.252 48.9414C143.591 49.0358 142.93 49.083 142.27 49.083C141.703 49.083 141.042 49.1302 140.287 49.2246C139.91 49.4134 139.579 49.6494 139.296 49.9326C139.013 50.1214 138.682 50.3102 138.305 50.499C137.927 50.8766 137.597 51.3014 137.314 51.7734C137.125 52.151 136.842 52.4814 136.464 52.7646C135.709 52.9535 135.142 53.1423 134.765 53.3311C134.765 53.7087 134.765 54.0863 134.765 54.4639C134.859 54.7471 134.765 54.9831 134.482 55.1719C133.254 55.6439 132.688 56.3519 132.782 57.2959C132.971 58.2399 132.971 59.0895 132.782 59.8447C132.405 60.4111 132.263 60.7887 132.358 60.9775C132.452 61.0719 132.452 61.3079 132.358 61.6855C131.791 62.3464 131.508 62.9128 131.508 63.3848C131.602 64.0456 131.933 64.5648 132.499 64.9424C132.877 65.0368 133.349 65.2728 133.915 65.6504C133.821 66.1224 133.821 66.6416 133.915 67.208C134.01 67.68 134.104 68.1992 134.198 68.7656C134.859 69.1432 135.284 69.8512 135.473 70.8896C136.228 70.984 136.7 71.3145 136.889 71.8809C137.078 72.3529 137.361 72.7777 137.738 73.1553C139.06 73.2497 139.957 73.4385 140.429 73.7217C140.901 74.0049 141.42 74.2881 141.986 74.5713C142.458 74.5713 142.789 74.5241 142.978 74.4297C143.261 74.2409 143.591 74.1465 143.969 74.1465C144.441 74.6185 144.96 74.9961 145.526 75.2793C146.093 75.4681 146.612 75.7985 147.084 76.2705C147.934 76.4593 148.736 76.6481 149.491 76.8369C150.341 77.0257 151.096 77.3089 151.757 77.6865C152.04 77.6865 152.276 77.6865 152.465 77.6865C152.748 77.5921 153.031 77.5921 153.315 77.6865C153.787 77.7809 154.164 78.0169 154.447 78.3945C154.731 78.6777 155.014 78.9137 155.297 79.1025C156.335 79.0081 156.996 79.1969 157.279 79.6689C157.657 80.0465 158.082 80.4242 158.554 80.8018C158.931 80.8962 159.545 80.9434 160.395 80.9434C161.433 81.6042 162.141 81.9346 162.519 81.9346C162.896 81.8402 163.227 81.8402 163.51 81.9346C163.793 82.1234 164.029 82.3122 164.218 82.501C164.407 82.5954 164.595 82.737 164.784 82.9258C165.823 83.3034 166.389 83.6338 166.483 83.917C166.578 84.1058 166.72 84.2946 166.908 84.4834C167.664 84.4834 168.324 84.7666 168.891 85.333C168.985 85.805 169.127 86.1826 169.316 86.4658C169.599 86.749 169.835 87.0794 170.024 87.457C170.496 87.457 170.826 87.5986 171.015 87.8818C171.298 88.165 171.534 88.401 171.723 88.5898C171.817 88.9674 171.912 89.2979 172.006 89.5811C172.1 89.8643 172.148 90.2419 172.148 90.7139C172.336 91.1859 172.572 91.6107 172.856 91.9883C173.233 92.2715 173.516 92.6963 173.705 93.2627C174.083 93.7347 174.46 94.1123 174.838 94.3955C175.216 94.6787 175.452 95.1507 175.546 95.8115C176.018 97.1331 176.396 97.9827 176.679 98.3604C177.056 98.6436 177.151 99.2572 176.962 100.201C177.056 101.145 177.056 101.853 176.962 102.325C176.962 102.797 176.868 103.269 176.679 103.741L177.812 104.591Z" fill="white"/>
</g>
<rect x="1.5" y="1.5" width="185" height="177" rx="69.5" stroke="white" stroke-width="3"/>
<defs>
<clipPath id="clip0_60_46">
<rect x="3" y="3" width="182" height="174" rx="68" fill="white"/>
</clipPath>
</defs>
</svg>
